<svg xmlns="http://www.w3.org/2000/svg" width="320" height="320"><defs><pattern id="a" width="40" height="40" patternUnits="userSpaceOnUse"><path d="M20 0h20v20H20zM0 20h20v20H0z" fill="#bfbfbf"/></pattern></defs><path fill="#bf9f5f" d="M0 60h320v260H0z"/><path fill="#dfbf7f" d="M60 0h200l60 60H0z"/><path fill="#7f7f7f" d="M140 0h40l20 60v260h-80V60z"/><path fill="#3f3f3f" d="M150 0h20l10 60v260h-40V60z"/><path fill="#bfbfbf" d="M160 0h10l2 10h-24l-2 15h28l3 15h-34l-3 20h20z"/><path fill="url(#a)" d="M140 60h40v260h-40z"/></svg>