<svg xmlns="http://www.w3.org/2000/svg" xmlns:xlink="http://www.w3.org/1999/xlink" width="320" height="320"><defs><path id="a" d="M0 160q0 100 100 100t170-100q30 0 50-30-25-10-50 0 0-30-20-40-20 30 0 60-10 10-30 10"/><clipPath id="b"><use xlink:href="#a"/></clipPath></defs><use xlink:href="#a" fill="#24b8eb"/><path d="M40 100h40v40H40zm60 0h40v40h-40zm60 0h40v40h-40zm-60-60h40v40h-40z" fill="#008bb8"/><circle cx="90" cy="210" r="10" stroke="#fff" stroke-width="3"/><path fill="#fff" clip-path="url(#b)" d="M0 230l80-10 60 60L0 320z"/></svg>