<svg xmlns="http://www.w3.org/2000/svg" xmlns:xlink="http://www.w3.org/1999/xlink" width="320" height="320"><defs><path id="a" d="M160 10L10 50l20 180 130 80 130-80 20-180z"/><mask id="b"><path fill="#fff" d="M0 0h320v320H0z"/><use xlink:href="#a" fill="none" stroke="#000" stroke-width="60"/></mask></defs><use xlink:href="#a" fill="#fff" stroke="#515151" stroke-width="20"/><g mask="url(#b)"><path fill="#383838" d="M160 10L10 60l20 170 130 80V120l150-60z"/><path fill="#1d79bf" d="M160 120v190l130-80 20-170z"/><g fill="#fff"><path d="M10 60l20 170 60 30L80 90z"/><path d="M10 60l150 60v35L10 90zm0 50l130 65v30L10 140z"/></g><path d="M175 300V130l25-10c60-25 60 35 0 55l-25 10m25-10c60-20 60 35 0 60l-25 15" fill="none" stroke="#fff" stroke-width="30"/></g></svg>