<svg xmlns="http://www.w3.org/2000/svg" width="320" height="320"><g stroke="#000"><g fill="#f6d2a1"><rect x="40" y="160" width="40" height="20" rx="5" ry="5"/><rect x="240" y="160" width="40" height="20" rx="5" ry="5"/><rect x="80" y="290" width="40" height="20" rx="5" ry="5" transform="rotate(-45 100 300)"/><rect x="200" y="290" width="40" height="20" rx="5" ry="5" transform="rotate(45 220 300)"/></g><g fill="#73cddc"><circle cx="70" cy="40" r="20"/><circle cx="250" cy="40" r="20"/><g fill="#000"><circle cx="70" cy="40" r="8"/><circle cx="250" cy="40" r="8"/></g><rect x="60" width="200" height="320" rx="100" ry="80"/></g><g fill="#fff"><circle cx="120" cy="50" r="30"/><circle cx="200" cy="50" r="30"/><path d="M152 100h8v20h-8zm8 0h8v20h-8z"/></g><ellipse cx="160" cy="100" rx="20" ry="10" fill="#f6d2a1"/><circle cx="100" cy="50" r="10"/><circle cx="180" cy="50" r="10"/><ellipse cx="160" cy="90" rx="12" ry="8"/></g></svg>