<svg xmlns="http://www.w3.org/2000/svg" width="320" height="320"><path d="M130 40q0-20 10-30 0 10 10 20 0-20 20-30-5 10 5 25 5-10 15-10-5 15 0 25" fill="#462f13"/><g fill="#fba919" stroke="#462f13" stroke-width="10" stroke-linejoin="round" stroke-linecap="round"><path d="M120 40Q80 0 50 30q20 10 20 30v20m130-40q40-40 70-10-20 10-20 30v20"/><ellipse cx="160" cy="80" rx="80" ry="40"/><path d="M120 80C60 40 40 60 60 90v30q-20 20 0 40t20 30v70q0 40 80 40t80-40v-70q0-10 20-30t0-40V90c20-30 0-50-60-10"/><path d="M90 110l40 30a20 20 0 0 1-40-30m140 0l-40 30a20 20 0 0 0 40-30M60 200q10 40 60 40h80q50 0 60-40c20 40 0 80-60 80h-80c-60 0-80-40-60-80" fill="#fff"/><path d="M130 190l-30 70c20 70 100 70 120 0l-30-70m-80 60h100"/><path d="M120 265h20l-10 10zm80 0h-20l10 10z" fill="#462f13"/></g></svg>