<svg xmlns="http://www.w3.org/2000/svg" width="320" height="320"><defs><mask id="a"><path fill="#fff" d="M0 0h320v320H0z"/><path d="M140 100l-60 60 60 60m40-120l60 60-60 60" fill="none" stroke="#000" stroke-width="25"/></mask></defs><path fill="#f68712" mask="url(#a)" d="M40 40h240v240H40z"/><path fill="#fab20b" d="M0 0l40 160L160 40z"/><path fill="#fff200" d="M0 0v80l40 80z"/><path fill="#fbc707" d="M0 0h80l80 40z"/><path fill="#f47216" d="M320 0L160 40l120 120z"/><path fill="#fbc707" d="M320 0h-80l-80 40z"/><path fill="#f1471d" d="M320 0v80l-40 80z"/><path fill="#f89c0e" d="M0 320l160-40L40 160z"/><path fill="#f25c19" d="M0 320h80l80-40z"/><path fill="#fff200" d="M0 320v-80l40-80z"/><path fill="#f25c19" d="M320 320l-40-160-120 120z"/><path fill="#f1471d" d="M320 320v-80l-40-80z"/><path fill="#f68712" d="M320 320h-80l-80-40z"/></svg>