<svg xmlns="http://www.w3.org/2000/svg" xmlns:xlink="http://www.w3.org/1999/xlink" width="320" height="320"><g fill="#a00"><circle cx="160" cy="160" r="120"/><path id="a" d="M120 0h80v80h-80z"/><use xlink:href="#a" transform="rotate(60 160 160)"/><use xlink:href="#a" transform="rotate(120 160 160)"/><use xlink:href="#a" transform="rotate(180 160 160)"/><use xlink:href="#a" transform="rotate(240 160 160)"/><use xlink:href="#a" transform="rotate(300 160 160)"/></g><g fill="#fff"><path d="M148 64c60 42 60 66 30 96q-42 42-24 90l18 6q-24-42 12-84c36-42 36-66-36-108"/><path d="M106 136q30 6 42 36 0-42-42-36"/><path d="M118 112q36 6 42 36 6-42-42-36"/><path d="M142 94q30 6 36 30 3-33-36-30"/></g></svg>