<svg xmlns="http://www.w3.org/2000/svg" xmlns:xlink="http://www.w3.org/1999/xlink" width="16" height="16" viewBox="0 0 16 16">
  <defs>
    <linearGradient id="a" x1="50%" x2="50%" y1="46.108%" y2="7.339%">
      <stop offset="0%" stop-color="#DCF2FF"/>
      <stop offset="100%" stop-color="#BAE1F8"/>
    </linearGradient>
    <linearGradient id="c" x1="50%" x2="50%" y1="57.877%" y2="100%">
      <stop offset="0%" stop-color="#7F9EAF"/>
      <stop offset="100%" stop-color="#529126"/>
    </linearGradient>
    <path id="b" d="M2,1 L14,1 L14,1 C14.5522847,1 15,1.44771525 15,2 L15,14 L15,14 C15,14.5522847 14.5522847,15 14,15 L2,15 L2,15 C1.44771525,15 1,14.5522847 1,14 L1,2 L1,2 C1,1.44771525 1.44771525,1 2,1 Z"/>
    <circle id="d" cx="2" cy="1" r="1"/>
  </defs>
  <g fill="none" fill-rule="evenodd">
    <use fill="url(#a)" xlink:href="#b"/>
    <path stroke="url(#c)" d="M2,1.5 C1.72385763,1.5 1.5,1.72385763 1.5,2 L1.5,14 C1.5,14.2761424 1.72385763,14.5 2,14.5 L14,14.5 C14.2761424,14.5 14.5,14.2761424 14.5,14 L14.5,2 C14.5,1.72385763 14.2761424,1.5 14,1.5 L2,1.5 Z"/>
    <g transform="translate(2 3)">
      <polygon fill="#74AB4C" points="7 4 12 11 4 11 4 6" transform="matrix(-1 0 0 1 16 0)"/>
      <use fill="#FFB148" xlink:href="#d"/>
      <circle cx="2" cy="1" r="1.5" stroke="#FFE8C9" stroke-opacity=".557"/>
      <polygon fill="#97D56A" points="4 6 10 11 0 11 0 9"/>
    </g>
  </g>
</svg>
