<?xml version="1.0" encoding="iso-8859-1"?>
<!-- Generator: Adobe Illustrator 20.1.0, SVG Export Plug-In . SVG Version: 6.00 Build 0)  -->
<svg version="1.1" xmlns="http://www.w3.org/2000/svg" xmlns:xlink="http://www.w3.org/1999/xlink" x="0px" y="0px"
	 viewBox="0 0 16 16" style="enable-background:new 0 0 16 16;" xml:space="preserve">
<g id="outline">
	<rect style="opacity:0;fill:#252526;" width="16" height="16"/>
	<path style="fill:#252526;" d="M13,0H6C3.794,0,2,1.793,2,4v6H0v1.5C0,13.43,1.57,15,3.5,15h6c1.93,0,3.5-1.57,3.5-3.5V5h3V3
		C16,1.346,14.654,0,13,0z"/>
</g>
<g id="color_x5F_importance">
	<path style="fill:#F16421;" d="M13,1H6C4.343,1,3,2.342,3,4v6h2V4c0-0.553,0.447-1,1-1h5v8.5c0,0.828-0.672,1.5-1.5,1.5
		C8.672,13,8,12.328,8,11.5V11H1v0.5C1,12.881,2.119,14,3.5,14h6c1.381,0,2.5-1.119,2.5-2.5V4h3V3C15,1.895,14.104,1,13,1z"/>
</g>
<g id="icon_x5F_fg">
	<path style="fill:#252526;" d="M6,3C5.447,3,5,3.447,5,4v6h6V3H6z"/>
</g>
</svg>
