<svg xmlns="http://www.w3.org/2000/svg" width="320" height="320"><path fill="#bf9f5f" d="M0 60h320v260H0z"/><path fill="#dfbf7f" d="M60 0h200l60 60H0z"/><path fill="#7f7f7f" d="M140 0h40l20 60h-80z"/><path fill="#3f3f3f" d="M150 0h20l10 60h-40z"/><path fill="#bfbfbf" d="M160 0h10l2 10h-24l-2 15h28l3 15h-34l-3 20h20z"/><g fill="#1188d6" transform="matrix(.6 0 0 .6 64 94)"><circle cx="30" cy="30" r="30"/><rect x="60" y="60" width="260" height="260" rx="80" ry="80"/></g><g fill="#fff" transform="matrix(.6 0 0 .6 64 94)"><circle cx="130" cy="130" r="30"/><circle cx="230" cy="230" r="50"/></g></svg>