<svg xmlns="http://www.w3.org/2000/svg" xmlns:xlink="http://www.w3.org/1999/xlink" width="320" height="320"><defs><g id="a"><path fill="#66aeed" d="M64 40l32 60 32-60z"/><path fill="#54a4eb" d="M32 100l32-60 32 60z"/><path fill="#429be9" d="M32 100l32 60 32-60z"/><path fill="#2b8fe7" d="M0 160l32-60 32 60z"/><path fill="#1e88e5" d="M0 160l32 60 32-60z"/><path fill="#2055a8" d="M32 220l32-60 32 60z"/><path fill="#0d47a1" d="M32 220l32 60 32-60z"/><path fill="#f52757" d="M64 280l32-60 32 60z"/><path fill="#f75279" d="M96 220l32 60 32-60z"/><path fill="#f8688a" d="M96 220l32-60 32 60z"/></g></defs><use xlink:href="#a"/><use xlink:href="#a" transform="rotate(180 160 160)"/><path fill="#f87292" d="M128 160l32 60 32-60z"/><path fill="#f97d9a" d="M128 160l32-60 32 60z"/></svg>