<svg xmlns="http://www.w3.org/2000/svg" width="320" height="320"><defs><mask id="a"><path fill="#fff" d="M0 0h320v320H0z"/><circle cx="130" cy="30" r="15"/><circle cx="190" cy="290" r="15"/></mask></defs><g mask="url(#a)"><g fill="#3f7fbf"><ellipse cx="30" cy="160" rx="30" ry="80"/><path d="M30 80h130v160H30z"/></g><g fill="#ffdf3f"><ellipse cx="290" cy="160" rx="30" ry="80"/><path d="M160 80h130v160H160z"/></g><g fill="#3f7fbf"><ellipse cx="160" cy="30" rx="80" ry="30"/><path d="M80 30h160v30H80z"/><rect x="160" y="30" width="80" height="130" rx="40" ry="40"/><path d="M160 80h40v80h-40z"/></g><g fill="#ffdf3f"><ellipse cx="160" cy="290" rx="80" ry="30"/><path d="M80 260h160v30H80z"/><rect x="80" y="160" width="80" height="130" rx="40" ry="40"/><path d="M120 160h40v80h-40z"/></g></g></svg>