<svg xmlns="http://www.w3.org/2000/svg" width="320" height="320"><defs><clipPath id="a"><path d="M0 0v190h120l40-110z"/></clipPath><clipPath id="b"><path d="M320 0v190H120l40-110z"/></clipPath></defs><path fill="#bf9f5f" d="M0 60h320v260H0z"/><path fill="#dfbf7f" d="M60 0h200l60 60H0z"/><path fill="#7f7f7f" d="M140 0h40l20 60h-80z"/><path fill="#3f3f3f" d="M150 0h20l10 60h-40z"/><path fill="#bfbfbf" d="M160 0h10l2 10h-24l-2 15h28l3 15h-34l-3 20h20z"/><g stroke="#000"><g fill="none" stroke-width="20" transform="scale(1.5 1)"><circle cx="107" cy="180" r="80" clip-path="url(#a)"/><circle cx="107" cy="180" r="80" stroke="red" clip-path="url(#b)"/></g><circle cx="160" cy="180" r="10"/><path stroke-width="10" d="M160 180l140 10"/></g><text x="50" y="280" font-family="Arial" font-size="120" font-weight="bold">rpm</text></svg>