<svg xmlns="http://www.w3.org/2000/svg" xmlns:xlink="http://www.w3.org/1999/xlink" width="16" height="16" viewBox="0 0 16 16">
  <defs>
    <circle id="a" cx="1.5" cy="1.5" r="1.5"/>
    <circle id="b" cx="14.5" cy="1.5" r="1.5"/>
  </defs>
  <g fill="none" fill-rule="evenodd">
    <g transform="translate(0 1)">
      <path stroke="#424859" stroke-width="2" d="M1.72339292,1.38671352 C2.5085847,0.8877241 3.25474907,0.517939084 3.96188603,0.277358471 C5.02259148,-0.0835124496 7.74638587,-0.198280045 7.43375511,1.48494901 C7.10485329,4.93284949 13.2049939,3.58060209 14.1260316,1.88764609"/>
      <use fill="#373D49" xlink:href="#a"/>
      <circle cx="1.5" cy="1.5" r="1" stroke="#585E6F"/>
      <g>
        <use fill="#373D49" xlink:href="#b"/>
        <circle cx="14.5" cy="1.5" r="1" stroke="#585E6F"/>
      </g>
    </g>
    <g transform="translate(3 2)">
      <path fill="#CDE5FC" d="M4.01123808,-8.4238172e-15 L4.01123808,5.62762272 C4.01123808,5.9037651 4.23509571,6.12762272 4.51123808,6.12762272 C4.78738046,6.12762272 5.01123808,5.9037651 5.01123808,5.62762272 L5.01123808,0.000161867611 C5.05124351,0.0233222354 5.09012144,0.0495360136 5.12756452,0.0788406806 C5.19133971,0.128754075 5.24881547,0.186229832 5.29872886,0.250005025 L5.29872886,0.250005025 L8.80995661,4.7363605 C9.02792102,5.01485734 9.08257821,5.38776853 8.95370273,5.71710131 L6.83644152,11.1276227 L2.18603465,11.1276227 L0.0687734323,5.71710131 C-0.0601020441,5.38776853 -0.00544485308,5.01485734 0.212519554,4.7363605 L3.7237473,0.250005025 L3.7237473,0.250005025 C3.80525997,0.145854904 3.9032953,0.0622510362 4.01123808,-9.38832345e-15 Z M4.49385298,7.86332617 L4.49385298,7.86332617 C4.09145467,7.86476805 3.76483313,8.18915769 3.76063219,8.59153666 L3.76063219,8.59153666 C3.76059727,8.59488121 3.7605858,8.59822596 3.76059779,8.60157068 C3.76201381,8.99675257 4.08351995,9.31596288 4.47870184,9.31454685 L4.53028552,9.31436202 C4.93268383,9.31292013 5.25930537,8.9885305 5.26350631,8.58615153 L5.26350631,8.58615153 L5.26350631,8.58615153 C5.26354123,8.58280698 5.2635527,8.57946222 5.26354071,8.57611751 C5.26212469,8.18093562 4.94061855,7.86172531 4.54543666,7.86314134 L4.54543666,7.86314134 L4.49385298,7.86332617 Z"/>
      <path fill="#3A6C9E" d="M1.5,11 L7.5,11 L7.5,11 C7.77614237,11 8,11.2238576 8,11.5 L8,13.5 L8,13.5 C8,13.7761424 7.77614237,14 7.5,14 L1.5,14 L1.5,14 C1.22385763,14 1,13.7761424 1,13.5 L1,11.5 L1,11.5 C1,11.2238576 1.22385763,11 1.5,11 Z"/>
    </g>
  </g>
</svg>
