<svg xmlns="http://www.w3.org/2000/svg" width="320" height="320"><defs><mask id="a"><path fill="#fff" d="M0 0h320v320H0z"/><ellipse cx="160" cy="245" rx="35" ry="60"/><path d="M110 80q20 30 50 50-40-20-60-40m200 170q-20-20-60-30 40 20 60 50"/></mask></defs><path fill="#bf9f5f" d="M0 60h320v260H0z"/><path fill="#dfbf7f" d="M60 0h200l60 60H0z"/><path fill="#7f7f7f" d="M140 0h40l20 60h-80z"/><path fill="#3f3f3f" d="M150 0h20l10 60h-40z"/><path fill="#bfbfbf" d="M160 0h10l2 10h-24l-2 15h28l3 15h-34l-3 20h20z"/><path d="M160 0Q100 160 0 320q160-120 320 0Q220 160 160 0" fill="#1793d1" mask="url(#a)" transform="matrix(.6 0 0 .6 64 94)"/></svg>