<svg xmlns="http://www.w3.org/2000/svg" width="320" height="320"><path fill="#ef5734" d="M40 60h280v200H40z"/><path fill="none" stroke="#ef5734" stroke-width="20" d="M150 70l40-40h120v40"/><g fill="#fff" transform="matrix(.5 0 0 .5 100 80)"><path d="M180 140c20-60 0-110-60-110S10 80 10 150s50 120 110 120q40 0 60-50 20 10 35-5 25 10 35-5 20 5 30-10 30 0 30-30t-130-30z" stroke="#fff" stroke-width="20"/><rect x="80" y="230" width="100" height="90" rx="60" ry="30" transform="rotate(-15 80 230)"/><g stroke-width="5"><path d="M210 120q-30-60 60-80-10 10-10 30 0 40-50 50z"/><path d="M180 80q-20 20 0 40l25-10-2-10q17 0 37 10-20-30-60-30z"/></g></g></svg>