<svg xmlns="http://www.w3.org/2000/svg" width="320" height="320"><g fill="#5f7f9f"><path d="M180 110c90 0 80 60 0 100q-60 30-30 60c20 20 40 10 40-20 0-10 60-25 60 0 0 30-40 70-80 70-50 0-120-70-120-120s60-90 130-90"/><ellipse cx="50" cy="105" rx="18" ry="28" transform="rotate(-25 50 105)"/><ellipse cx="95" cy="70" rx="20" ry="30" transform="rotate(-10 95 70)"/><ellipse cx="155" cy="45" rx="22" ry="35" transform="rotate(5 155 45)"/><ellipse cx="240" cy="45" rx="32" ry="50" transform="rotate(35 240 45)"/></g></svg>