<svg xmlns="http://www.w3.org/2000/svg" xmlns:xlink="http://www.w3.org/1999/xlink" width="320" height="320"><defs><ellipse id="b" cx="160" cy="140" rx="150" ry="80"/><ellipse id="a" cx="160" cy="190" rx="130" ry="90"/><mask id="c"><path fill="#fff" d="M0 0h320v320H0z"/><use xlink:href="#a"/></mask><mask id="d"><path fill="#fff" d="M0 0h320v320H0z"/><use xlink:href="#b"/></mask></defs><g fill="#efc743"><use xlink:href="#b" mask="url(#c)"/><path d="M120 80l40-40 40 40zm-80 20l20-50 40 30zm240 0l-20-50-40 30zM10 140L0 90l60 30zm300 0l10-50-60 30z"/></g><use xlink:href="#a" mask="url(#d)"/><path d="M20 165l20-5 40 60-50-30zm280 0l-20-5-40 60 50-30zM80 230l80-50 80 50z"/></svg>