<svg xmlns="http://www.w3.org/2000/svg" xmlns:xlink="http://www.w3.org/1999/xlink" width="320" height="320"><defs><g id="b"><ellipse cx="160" cy="160" rx="130" ry="155" clip-path="url(#a)"/><path d="M20 100q140-40 280 0 10 30-10 60-130-40-260 0-20-30-10-60z"/></g><path id="c" d="M40 160q120-40 240 0l-10 50-20 20-70-10-10-40h-20l-10 40-70 10-20-20z"/><clipPath id="a"><path d="M0 0h320v100H0z"/></clipPath><mask id="d"><path fill="#fff" d="M0 0h320v320H0z"/><use xlink:href="#b"/><use xlink:href="#c" fill="#fff" stroke="#fff" stroke-width="20"/></mask></defs><g stroke="#2d3136" stroke-width="10"><ellipse cx="160" cy="160" rx="120" ry="155" fill="#e6cbac"/><use xlink:href="#b" fill="#f2ebac"/></g><path d="M120 40h80m-40 0v80" stroke="#ca3349" stroke-width="20"/><circle cx="110" cy="185" r="15"/><circle cx="210" cy="185" r="15"/><g fill="#fff"><circle cx="112" cy="180" r="3"/><circle cx="208" cy="180" r="3"/></g><use xlink:href="#c" fill="none" stroke="#656c67" stroke-width="20"/><g fill="#ca3349" mask="url(#d)"><path d="M100 120q-40 20-80 60 50-30 120-50"/><path d="M160 130q-30 0-60 30 50-25 100-30m10-10q-5 25-30 40 60-10 80-40"/></g><path fill="#ca3349" d="M120 240l40 5 40-5 20 20h40l20-10-20 40-60 10-40-20-40 20-60-10-20-40 20 10h40z"/></svg>